<svg width="79" height="11" viewBox="0 0 79 11" fill="none" xmlns="http://www.w3.org/2000/svg">
<path opacity="0.7" d="M0.986 10L5.424 0.199999H6.81L11.262 10H9.792L5.83 0.983999H6.39L2.428 10H0.986ZM2.876 7.55L3.254 6.43H8.77L9.176 7.55H2.876ZM12.7239 10V0.199999H17.1199C18.2492 0.199999 19.1172 0.428666 19.7239 0.886C20.3306 1.334 20.6339 1.95 20.6339 2.734C20.6339 3.266 20.5126 3.714 20.2699 4.078C20.0366 4.442 19.7192 4.722 19.3179 4.918C18.9166 5.114 18.4826 5.212 18.0159 5.212L18.2679 4.792C18.8279 4.792 19.3226 4.89 19.7519 5.086C20.1812 5.282 20.5219 5.57133 20.7739 5.954C21.0259 6.32733 21.1519 6.794 21.1519 7.354C21.1519 8.194 20.8346 8.84733 20.1999 9.314C19.5746 9.77133 18.6412 10 17.3999 10H12.7239ZM14.1239 8.866H17.3439C18.1186 8.866 18.7112 8.73533 19.1219 8.474C19.5326 8.21267 19.7379 7.802 19.7379 7.242C19.7379 6.67267 19.5326 6.25733 19.1219 5.996C18.7112 5.73467 18.1186 5.604 17.3439 5.604H13.9979V4.47H16.9939C17.7032 4.47 18.2539 4.33933 18.6459 4.078C19.0379 3.81667 19.2339 3.42467 19.2339 2.902C19.2339 2.37933 19.0379 1.98733 18.6459 1.726C18.2539 1.46467 17.7032 1.334 16.9939 1.334H14.1239V8.866ZM27.7436 10.112C26.9969 10.112 26.3016 9.986 25.6576 9.734C25.0229 9.482 24.4723 9.132 24.0056 8.684C23.5389 8.22667 23.1749 7.69467 22.9136 7.088C22.6523 6.48133 22.5216 5.81867 22.5216 5.1C22.5216 4.38133 22.6523 3.71867 22.9136 3.112C23.1749 2.50533 23.5389 1.978 24.0056 1.53C24.4723 1.07267 25.0229 0.717999 25.6576 0.465999C26.2923 0.214 26.9876 0.0879999 27.7436 0.0879999C28.4903 0.0879999 29.1763 0.214 29.8016 0.465999C30.4363 0.708666 30.9869 1.05867 31.4536 1.516C31.9296 1.964 32.2936 2.49133 32.5456 3.098C32.8069 3.70467 32.9376 4.372 32.9376 5.1C32.9376 5.828 32.8069 6.49533 32.5456 7.102C32.2936 7.70867 31.9296 8.24067 31.4536 8.698C30.9869 9.146 30.4363 9.496 29.8016 9.748C29.1763 9.99067 28.4903 10.112 27.7436 10.112ZM27.7436 8.866C28.2849 8.866 28.7843 8.77267 29.2416 8.586C29.7083 8.39933 30.1096 8.138 30.4456 7.802C30.7909 7.45667 31.0569 7.05533 31.2436 6.598C31.4396 6.14067 31.5376 5.64133 31.5376 5.1C31.5376 4.55867 31.4396 4.05933 31.2436 3.602C31.0569 3.14467 30.7909 2.748 30.4456 2.412C30.1096 2.06667 29.7083 1.80067 29.2416 1.614C28.7843 1.42733 28.2849 1.334 27.7436 1.334C27.1929 1.334 26.6843 1.42733 26.2176 1.614C25.7603 1.80067 25.3589 2.06667 25.0136 2.412C24.6683 2.748 24.3976 3.14467 24.2016 3.602C24.0149 4.05933 23.9216 4.55867 23.9216 5.1C23.9216 5.64133 24.0149 6.14067 24.2016 6.598C24.3976 7.05533 24.6683 7.45667 25.0136 7.802C25.3589 8.138 25.7603 8.39933 26.2176 8.586C26.6843 8.77267 27.1929 8.866 27.7436 8.866ZM39.1374 10.112C37.8494 10.112 36.8368 9.74333 36.0994 9.006C35.3621 8.26867 34.9934 7.19067 34.9934 5.772V0.199999L36.3934 0.199999V5.716C36.3934 6.808 36.6314 7.606 37.1074 8.11C37.5928 8.614 38.2741 8.866 39.1514 8.866C40.0381 8.866 40.7194 8.614 41.1954 8.11C41.6808 7.606 41.9234 6.808 41.9234 5.716V0.199999H43.2814V5.772C43.2814 7.19067 42.9128 8.26867 42.1754 9.006C41.4474 9.74333 40.4348 10.112 39.1374 10.112ZM47.9199 10V1.418H44.5599V0.199999H52.6659V1.418H49.3059V10H47.9199ZM57.9505 10V0.199999H59.0985L63.4945 7.606H62.8785L67.2185 0.199999H68.3665L68.3805 10H67.0365L67.0225 2.314H67.3445L63.4805 8.81H62.8365L58.9445 2.314H59.2945V10H57.9505ZM72.5956 4.428H77.6356V5.618H72.5956V4.428ZM72.7216 8.782H78.4336V10H71.3216V0.199999H78.2376V1.418H72.7216V8.782Z" fill="#424242"/>
</svg>
