<svg width="40" height="11" viewBox="0 0 40 11" fill="none" xmlns="http://www.w3.org/2000/svg">
<path d="M7.26 4.904C8.016 4.498 8.52 3.756 8.52 2.748C8.52 1.194 7.26 0.199999 4.908 0.199999H0.316V10H5.188C7.708 10 9.024 9.02 9.024 7.34C9.024 6.066 8.31 5.24 7.26 4.904ZM4.712 1.628C5.972 1.628 6.686 2.076 6.686 2.986C6.686 3.882 5.972 4.33 4.712 4.33H2.136V1.628H4.712ZM5.076 8.572H2.136V5.744H5.076C6.448 5.744 7.19 6.178 7.19 7.158C7.19 8.138 6.448 8.572 5.076 8.572ZM10.9664 10H17.9104V8.46H12.7864V0.199999H10.9664V10ZM23.7475 10.14C26.7855 10.14 29.0255 8.012 29.0255 5.1C29.0255 2.188 26.7855 0.0599995 23.7475 0.0599995C20.7095 0.0599995 18.4695 2.202 18.4695 5.1C18.4695 7.998 20.7095 10.14 23.7475 10.14ZM23.7475 8.544C21.7735 8.544 20.3035 7.102 20.3035 5.1C20.3035 3.098 21.7735 1.656 23.7475 1.656C25.7215 1.656 27.1915 3.098 27.1915 5.1C27.1915 7.102 25.7215 8.544 23.7475 8.544ZM37.6467 8.04C37.0167 8.404 36.3307 8.544 35.6307 8.544C33.5587 8.544 32.0887 7.088 32.0887 5.1C32.0887 3.07 33.5587 1.656 35.6447 1.656C36.6947 1.656 37.5767 2.006 38.3467 2.776L39.4947 1.656C38.5707 0.606 37.1987 0.0599995 35.5607 0.0599995C32.4947 0.0599995 30.2547 2.174 30.2547 5.1C30.2547 8.026 32.4947 10.14 35.5327 10.14C36.9187 10.14 38.3467 9.72 39.3687 8.894V4.988H37.6467V8.04Z" fill="#5A47AB"/>
</svg>
