<svg width="70" height="11" viewBox="0 0 70 11" fill="none" xmlns="http://www.w3.org/2000/svg">
<path opacity="0.7" d="M5.852 10.112C7.378 10.112 8.694 9.58 9.59 8.572L8.68 7.69C7.924 8.488 7 8.866 5.922 8.866C3.71 8.866 2.072 7.27 2.072 5.1C2.072 2.93 3.71 1.334 5.922 1.334C7 1.334 7.924 1.698 8.68 2.496L9.59 1.614C8.694 0.606 7.378 0.0879999 5.866 0.0879999C2.884 0.0879999 0.672 2.202 0.672 5.1C0.672 7.998 2.884 10.112 5.852 10.112ZM15.8061 10.112C18.7881 10.112 21.0001 7.984 21.0001 5.1C21.0001 2.216 18.7881 0.0879999 15.8061 0.0879999C12.7961 0.0879999 10.5841 2.23 10.5841 5.1C10.5841 7.97 12.7961 10.112 15.8061 10.112ZM15.8061 8.866C13.6081 8.866 11.9841 7.27 11.9841 5.1C11.9841 2.93 13.6081 1.334 15.8061 1.334C17.9761 1.334 19.6001 2.93 19.6001 5.1C19.6001 7.27 17.9761 8.866 15.8061 8.866ZM30.1679 0.199999V7.508L24.2879 0.199999H23.1399V10H24.5399V2.692L30.4199 10H31.5679V0.199999H30.1679ZM36.4473 10H37.8333V1.418H41.1933V0.199999L33.0873 0.199999V1.418L36.4473 1.418V10ZM49.5479 10H51.0179L46.5659 0.199999H45.1799L40.7419 10H42.1839L43.2619 7.55H48.4699L49.5479 10ZM43.7519 6.43L45.8659 1.628L47.9799 6.43H43.7519ZM56.725 10.112C58.251 10.112 59.567 9.58 60.463 8.572L59.553 7.69C58.797 8.488 57.873 8.866 56.795 8.866C54.583 8.866 52.945 7.27 52.945 5.1C52.945 2.93 54.583 1.334 56.795 1.334C57.873 1.334 58.797 1.698 59.553 2.496L60.463 1.614C59.567 0.606 58.251 0.0879999 56.739 0.0879999C53.757 0.0879999 51.545 2.202 51.545 5.1C51.545 7.998 53.757 10.112 56.725 10.112ZM64.2969 10H65.6829V1.418H69.0429V0.199999H60.9369V1.418H64.2969V10Z" fill="#424242"/>
</svg>
