<svg width="21" height="11" viewBox="0 0 21 11" fill="none" xmlns="http://www.w3.org/2000/svg">
<path opacity="0.7" d="M5.852 10.112C7.378 10.112 8.694 9.58 9.59 8.572L8.68 7.69C7.924 8.488 7 8.866 5.922 8.866C3.71 8.866 2.072 7.27 2.072 5.1C2.072 2.93 3.71 1.334 5.922 1.334C7 1.334 7.924 1.698 8.68 2.496L9.59 1.614C8.694 0.606 7.378 0.0879999 5.866 0.0879999C2.884 0.0879999 0.672 2.202 0.672 5.1C0.672 7.998 2.884 10.112 5.852 10.112ZM18.6035 0.199999L15.0475 8.25L11.5195 0.199999H10.0075L14.3195 10H15.7055L20.0035 0.199999H18.6035Z" fill="#424242"/>
</svg>
