<svg width="86" height="11" viewBox="0 0 86 11" fill="none" xmlns="http://www.w3.org/2000/svg">
<path opacity="0.7" d="M1.73 4.834H6.784V6.038H1.73V4.834ZM1.87 10H0.47V0.199999H7.386V1.418H1.87V10ZM9.35672 10V0.199999H13.1787C14.0374 0.199999 14.7701 0.335333 15.3767 0.606C15.9834 0.876666 16.4501 1.26867 16.7767 1.782C17.1034 2.29533 17.2667 2.90667 17.2667 3.616C17.2667 4.32533 17.1034 4.93667 16.7767 5.45C16.4501 5.954 15.9834 6.34133 15.3767 6.612C14.7701 6.88267 14.0374 7.018 13.1787 7.018H10.1267L10.7567 6.374V10H9.35672ZM15.9087 10L13.4167 6.444H14.9147L17.4347 10H15.9087ZM10.7567 6.514L10.1267 5.828H13.1367C14.0327 5.828 14.7094 5.63667 15.1667 5.254C15.6334 4.862 15.8667 4.316 15.8667 3.616C15.8667 2.916 15.6334 2.37467 15.1667 1.992C14.7094 1.60933 14.0327 1.418 13.1367 1.418H10.1267L10.7567 0.717999V6.514ZM20.8026 4.428H25.8426V5.618H20.8026V4.428ZM20.9286 8.782H26.6406V10H19.5286V0.199999H26.4446V1.418H20.9286V8.782ZM30.1815 4.428H35.2215V5.618H30.1815V4.428ZM30.3075 8.782H36.0195V10H28.9075V0.199999H35.8235V1.418H30.3075V8.782ZM38.2864 10V0.199999H39.6864V8.782H44.9924V10H38.2864ZM45.1149 10L49.5529 0.199999H50.9389L55.3909 10H53.9209L49.9589 0.983999H50.5189L46.5569 10H45.1149ZM47.0049 7.55L47.3829 6.43H52.8989L53.3049 7.55H47.0049ZM56.8528 10V0.199999H58.0008L64.4828 8.25H63.8808V0.199999H65.2808V10H64.1328L57.6508 1.95H58.2528V10H56.8528ZM72.5961 10.112C71.8495 10.112 71.1588 9.99067 70.5241 9.748C69.8988 9.496 69.3528 9.146 68.8861 8.698C68.4288 8.24067 68.0695 7.70867 67.8081 7.102C67.5468 6.49533 67.4161 5.828 67.4161 5.1C67.4161 4.372 67.5468 3.70467 67.8081 3.098C68.0695 2.49133 68.4335 1.964 68.9001 1.516C69.3668 1.05867 69.9128 0.708666 70.5381 0.465999C71.1728 0.214 71.8635 0.0879999 72.6101 0.0879999C73.3661 0.0879999 74.0615 0.218667 74.6961 0.48C75.3401 0.731999 75.8861 1.11 76.3341 1.614L75.4241 2.496C75.0508 2.104 74.6308 1.81467 74.1641 1.628C73.6975 1.432 73.1981 1.334 72.6661 1.334C72.1155 1.334 71.6021 1.42733 71.1261 1.614C70.6595 1.80067 70.2535 2.062 69.9081 2.398C69.5628 2.734 69.2921 3.13533 69.0961 3.602C68.9095 4.05933 68.8161 4.55867 68.8161 5.1C68.8161 5.64133 68.9095 6.14533 69.0961 6.612C69.2921 7.06933 69.5628 7.466 69.9081 7.802C70.2535 8.138 70.6595 8.39933 71.1261 8.586C71.6021 8.77267 72.1155 8.866 72.6661 8.866C73.1981 8.866 73.6975 8.77267 74.1641 8.586C74.6308 8.39 75.0508 8.09133 75.4241 7.69L76.3341 8.572C75.8861 9.076 75.3401 9.45867 74.6961 9.72C74.0615 9.98133 73.3615 10.112 72.5961 10.112ZM79.6053 4.428H84.6453V5.618H79.6053V4.428ZM79.7313 8.782H85.4433V10H78.3313V0.199999H85.2473V1.418H79.7313V8.782Z" fill="#424242"/>
</svg>
