<svg width="92" height="19" viewBox="0 0 92 19" fill="none" xmlns="http://www.w3.org/2000/svg">
<g opacity="0.7" filter="url(#filter0_d_2_447)">
<path d="M8.292 0.199999H4.47L4.47 10H5.87V7.032H8.292C10.84 7.032 12.38 5.744 12.38 3.616C12.38 1.488 10.84 0.199999 8.292 0.199999ZM8.25 5.814H5.87L5.87 1.418H8.25C10.042 1.418 10.98 2.216 10.98 3.616C10.98 5.016 10.042 5.814 8.25 5.814ZM18.9975 10.112C21.9795 10.112 24.1915 7.984 24.1915 5.1C24.1915 2.216 21.9795 0.0879999 18.9975 0.0879999C15.9875 0.0879999 13.7755 2.23 13.7755 5.1C13.7755 7.97 15.9875 10.112 18.9975 10.112ZM18.9975 8.866C16.7995 8.866 15.1755 7.27 15.1755 5.1C15.1755 2.93 16.7995 1.334 18.9975 1.334C21.1675 1.334 22.7915 2.93 22.7915 5.1C22.7915 7.27 21.1675 8.866 18.9975 8.866ZM34.4093 10L32.0853 6.71C33.4573 6.22 34.2413 5.128 34.2413 3.616C34.2413 1.488 32.7013 0.199999 30.1533 0.199999H26.3313V10H27.7313V7.018H30.1533C30.3633 7.018 30.5733 7.004 30.7693 6.99L32.8833 10H34.4093ZM30.1113 5.828H27.7313V1.418H30.1113C31.9033 1.418 32.8413 2.216 32.8413 3.616C32.8413 5.016 31.9033 5.828 30.1113 5.828ZM38.3125 10L39.6985 10V1.418H43.0585V0.199999H34.9525V1.418H38.3125V10ZM51.4993 1.418V0.199999L44.5833 0.199999V10H45.9833V6.038H50.8973V4.834H45.9833V1.418H51.4993ZM57.7846 10.112C60.7666 10.112 62.9786 7.984 62.9786 5.1C62.9786 2.216 60.7666 0.0879999 57.7846 0.0879999C54.7746 0.0879999 52.5626 2.23 52.5626 5.1C52.5626 7.97 54.7746 10.112 57.7846 10.112ZM57.7846 8.866C55.5866 8.866 53.9626 7.27 53.9626 5.1C53.9626 2.93 55.5866 1.334 57.7846 1.334C59.9546 1.334 61.5786 2.93 61.5786 5.1C61.5786 7.27 59.9546 8.866 57.7846 8.866ZM65.1184 10H71.8244V8.782H66.5184V0.199999H65.1184V10ZM73.4309 10H74.8309V0.199999H73.4309V10ZM82.1889 10.112C85.1709 10.112 87.3829 7.984 87.3829 5.1C87.3829 2.216 85.1709 0.0879999 82.1889 0.0879999C79.1789 0.0879999 76.9669 2.23 76.9669 5.1C76.9669 7.97 79.1789 10.112 82.1889 10.112ZM82.1889 8.866C79.9909 8.866 78.3669 7.27 78.3669 5.1C78.3669 2.93 79.9909 1.334 82.1889 1.334C84.3589 1.334 85.9829 2.93 85.9829 5.1C85.9829 7.27 84.3589 8.866 82.1889 8.866Z" fill="#424242"/>
<path d="M4.47 0.199999V-0.800001H3.47L3.47 0.199999H4.47ZM4.47 10H3.47V11H4.47V10ZM5.87 10V11H6.87V10H5.87ZM5.87 7.032V6.032H4.87V7.032H5.87ZM5.87 5.814H4.87V6.814H5.87V5.814ZM5.87 1.418V0.418H4.87V1.418H5.87ZM8.292 -0.800001L4.47 -0.800001V1.2H8.292V-0.800001ZM3.47 0.199999L3.47 10H5.47L5.47 0.199999H3.47ZM4.47 11H5.87V9H4.47V11ZM6.87 10V7.032H4.87V10H6.87ZM5.87 8.032H8.292V6.032H5.87V8.032ZM8.292 8.032C9.72333 8.032 10.998 7.67061 11.9328 6.88928C12.89 6.0892 13.38 4.94002 13.38 3.616H11.38C11.38 4.41998 11.1 4.9788 10.6502 5.35472C10.178 5.74939 9.40867 6.032 8.292 6.032V8.032ZM13.38 3.616C13.38 2.29198 12.89 1.1428 11.9328 0.342718C10.998 -0.438608 9.72333 -0.800001 8.292 -0.800001V1.2C9.40867 1.2 10.178 1.48261 10.6502 1.87728C11.1 2.2532 11.38 2.81202 11.38 3.616H13.38ZM8.25 4.814H5.87L5.87 6.814H8.25V4.814ZM6.87 5.814L6.87 1.418H4.87L4.87 5.814H6.87ZM5.87 2.418H8.25V0.418H5.87V2.418ZM8.25 2.418C9.01634 2.418 9.43949 2.59094 9.65441 2.76648C9.83701 2.91564 9.98 3.15534 9.98 3.616H11.98C11.98 2.67666 11.654 1.81736 10.9196 1.21752C10.2175 0.64406 9.27566 0.418 8.25 0.418V2.418ZM9.98 3.616C9.98 4.07666 9.83701 4.31636 9.65441 4.46552C9.43949 4.64106 9.01634 4.814 8.25 4.814V6.814C9.27566 6.814 10.2175 6.58794 10.9196 6.01448C11.654 5.41464 11.98 4.55534 11.98 3.616H9.98ZM18.9975 11.112C22.497 11.112 25.1915 8.57045 25.1915 5.1H23.1915C23.1915 7.39755 21.462 9.112 18.9975 9.112V11.112ZM25.1915 5.1C25.1915 1.62955 22.497 -0.912 18.9975 -0.912V1.088C21.462 1.088 23.1915 2.80245 23.1915 5.1H25.1915ZM18.9975 -0.912C15.4718 -0.912 12.7755 1.64188 12.7755 5.1H14.7755C14.7755 2.81812 16.5033 1.088 18.9975 1.088V-0.912ZM12.7755 5.1C12.7755 8.55812 15.4718 11.112 18.9975 11.112V9.112C16.5033 9.112 14.7755 7.38188 14.7755 5.1H12.7755ZM18.9975 7.866C17.3371 7.866 16.1755 6.70312 16.1755 5.1L14.1755 5.1C14.1755 7.83688 16.2619 9.866 18.9975 9.866V7.866ZM16.1755 5.1C16.1755 3.49688 17.3371 2.334 18.9975 2.334V0.334C16.2619 0.334 14.1755 2.36312 14.1755 5.1L16.1755 5.1ZM18.9975 2.334C20.6251 2.334 21.7915 3.49205 21.7915 5.1H23.7915C23.7915 2.36795 21.71 0.334 18.9975 0.334V2.334ZM21.7915 5.1C21.7915 6.70795 20.6251 7.866 18.9975 7.866V9.866C21.71 9.866 23.7915 7.83205 23.7915 5.1H21.7915ZM34.4093 10V11H36.34L35.2261 9.42304L34.4093 10ZM32.0853 6.71L31.749 5.76826L30.5087 6.21123L31.2686 7.28696L32.0853 6.71ZM26.3313 0.199999V-0.800001H25.3313V0.199999H26.3313ZM26.3313 10H25.3313V11H26.3313V10ZM27.7313 10V11H28.7313V10H27.7313ZM27.7313 7.018V6.018H26.7313V7.018H27.7313ZM30.7693 6.99L31.5877 6.41526L31.2625 5.95223L30.6981 5.99254L30.7693 6.99ZM32.8833 10L32.065 10.5747L32.3637 11H32.8833V10ZM27.7313 5.828H26.7313V6.828H27.7313V5.828ZM27.7313 1.418V0.418H26.7313V1.418H27.7313ZM35.2261 9.42304L32.9021 6.13304L31.2686 7.28696L33.5926 10.577L35.2261 9.42304ZM32.4217 7.65174C33.2764 7.34649 33.9948 6.83478 34.4962 6.121C34.9974 5.40726 35.2413 4.54888 35.2413 3.616H33.2413C33.2413 4.19512 33.0932 4.63874 32.8595 4.9715C32.6258 5.30422 32.2663 5.58351 31.749 5.76826L32.4217 7.65174ZM35.2413 3.616C35.2413 2.29198 34.7514 1.1428 33.7941 0.342718C32.8593 -0.438608 31.5847 -0.800001 30.1533 -0.800001V1.2C31.27 1.2 32.0393 1.48261 32.5115 1.87728C32.9613 2.2532 33.2413 2.81202 33.2413 3.616H35.2413ZM30.1533 -0.800001L26.3313 -0.800001V1.2H30.1533V-0.800001ZM25.3313 0.199999V10H27.3313V0.199999H25.3313ZM26.3313 11H27.7313V9H26.3313V11ZM28.7313 10V7.018H26.7313V10H28.7313ZM27.7313 8.018H30.1533V6.018H27.7313V8.018ZM30.1533 8.018C30.403 8.018 30.6453 8.00141 30.8406 7.98746L30.6981 5.99254C30.5014 6.00659 30.3236 6.018 30.1533 6.018V8.018ZM29.951 7.56474L32.065 10.5747L33.7017 9.42526L31.5877 6.41526L29.951 7.56474ZM32.8833 11H34.4093V9H32.8833V11ZM30.1113 4.828H27.7313V6.828H30.1113V4.828ZM28.7313 5.828V1.418H26.7313V5.828H28.7313ZM27.7313 2.418H30.1113V0.418H27.7313V2.418ZM30.1113 2.418C30.8777 2.418 31.3008 2.59094 31.5157 2.76648C31.6983 2.91564 31.8413 3.15534 31.8413 3.616L33.8413 3.616C33.8413 2.67666 33.5153 1.81736 32.7809 1.21752C32.0788 0.64406 31.137 0.418 30.1113 0.418V2.418ZM31.8413 3.616C31.8413 4.07734 31.6977 4.32248 31.5122 4.47541C31.2965 4.65322 30.874 4.828 30.1113 4.828V6.828C31.1407 6.828 32.0831 6.59678 32.7844 6.01859C33.516 5.41552 33.8413 4.55466 33.8413 3.616L31.8413 3.616ZM38.3125 10H37.3125V11H38.3125V10ZM39.6985 10V11H40.6985V10H39.6985ZM39.6985 1.418V0.418H38.6985V1.418H39.6985ZM43.0585 1.418V2.418H44.0585V1.418H43.0585ZM43.0585 0.199999H44.0585V-0.800001H43.0585V0.199999ZM34.9525 0.199999V-0.800001H33.9525V0.199999H34.9525ZM34.9525 1.418H33.9525V2.418H34.9525V1.418ZM38.3125 1.418H39.3125V0.418H38.3125V1.418ZM38.3125 11L39.6985 11V9L38.3125 9V11ZM40.6985 10V1.418H38.6985V10L40.6985 10ZM39.6985 2.418H43.0585V0.418H39.6985V2.418ZM44.0585 1.418V0.199999H42.0585V1.418H44.0585ZM43.0585 -0.800001L34.9525 -0.800001V1.2H43.0585V-0.800001ZM33.9525 0.199999V1.418H35.9525V0.199999H33.9525ZM34.9525 2.418H38.3125V0.418H34.9525V2.418ZM37.3125 1.418V10L39.3125 10V1.418H37.3125ZM51.4993 1.418V2.418H52.4993V1.418H51.4993ZM51.4993 0.199999H52.4993V-0.800001H51.4993V0.199999ZM44.5833 0.199999V-0.800001H43.5833V0.199999H44.5833ZM44.5833 10H43.5833V11H44.5833V10ZM45.9833 10V11H46.9833V10H45.9833ZM45.9833 6.038V5.038H44.9833V6.038H45.9833ZM50.8973 6.038V7.038H51.8973V6.038H50.8973ZM50.8973 4.834H51.8973V3.834H50.8973V4.834ZM45.9833 4.834H44.9833V5.834H45.9833V4.834ZM45.9833 1.418V0.418L44.9833 0.418V1.418L45.9833 1.418ZM52.4993 1.418V0.199999H50.4993V1.418H52.4993ZM51.4993 -0.800001L44.5833 -0.800001V1.2L51.4993 1.2V-0.800001ZM43.5833 0.199999V10H45.5833V0.199999L43.5833 0.199999ZM44.5833 11H45.9833V9H44.5833V11ZM46.9833 10V6.038H44.9833V10H46.9833ZM45.9833 7.038H50.8973V5.038H45.9833V7.038ZM51.8973 6.038V4.834H49.8973V6.038H51.8973ZM50.8973 3.834H45.9833V5.834H50.8973V3.834ZM46.9833 4.834V1.418L44.9833 1.418V4.834H46.9833ZM45.9833 2.418H51.4993V0.418H45.9833V2.418ZM57.7846 11.112C61.2841 11.112 63.9786 8.57045 63.9786 5.1L61.9786 5.1C61.9786 7.39755 60.2491 9.112 57.7846 9.112V11.112ZM63.9786 5.1C63.9786 1.62955 61.2841 -0.912 57.7846 -0.912V1.088C60.2491 1.088 61.9786 2.80245 61.9786 5.1L63.9786 5.1ZM57.7846 -0.912C54.2589 -0.912 51.5626 1.64188 51.5626 5.1H53.5626C53.5626 2.81812 55.2904 1.088 57.7846 1.088V-0.912ZM51.5626 5.1C51.5626 8.55812 54.2589 11.112 57.7846 11.112V9.112C55.2904 9.112 53.5626 7.38188 53.5626 5.1H51.5626ZM57.7846 7.866C56.1242 7.866 54.9626 6.70312 54.9626 5.1H52.9626C52.9626 7.83688 55.0491 9.866 57.7846 9.866V7.866ZM54.9626 5.1C54.9626 3.49688 56.1242 2.334 57.7846 2.334V0.334C55.0491 0.334 52.9626 2.36312 52.9626 5.1H54.9626ZM57.7846 2.334C59.4122 2.334 60.5786 3.49205 60.5786 5.1H62.5786C62.5786 2.36795 60.4971 0.334 57.7846 0.334V2.334ZM60.5786 5.1C60.5786 6.70795 59.4122 7.866 57.7846 7.866V9.866C60.4971 9.866 62.5786 7.83205 62.5786 5.1H60.5786ZM65.1184 10H64.1184V11H65.1184V10ZM71.8244 10V11H72.8244V10H71.8244ZM71.8244 8.782H72.8244V7.782H71.8244V8.782ZM66.5184 8.782H65.5184V9.782H66.5184V8.782ZM66.5184 0.199999H67.5184V-0.800001H66.5184V0.199999ZM65.1184 0.199999V-0.800001H64.1184V0.199999H65.1184ZM65.1184 11H71.8244V9H65.1184V11ZM72.8244 10V8.782H70.8244V10H72.8244ZM71.8244 7.782H66.5184V9.782H71.8244V7.782ZM67.5184 8.782V0.199999H65.5184V8.782H67.5184ZM66.5184 -0.800001L65.1184 -0.800001V1.2H66.5184V-0.800001ZM64.1184 0.199999V10H66.1184V0.199999H64.1184ZM73.4309 10H72.4309V11H73.4309V10ZM74.8309 10V11H75.8309V10H74.8309ZM74.8309 0.199999H75.8309V-0.800001H74.8309V0.199999ZM73.4309 0.199999V-0.800001H72.4309V0.199999H73.4309ZM73.4309 11H74.8309V9H73.4309V11ZM75.8309 10V0.199999H73.8309V10H75.8309ZM74.8309 -0.800001H73.4309V1.2H74.8309V-0.800001ZM72.4309 0.199999V10H74.4309V0.199999H72.4309ZM82.1889 11.112C85.6884 11.112 88.3829 8.57045 88.3829 5.1L86.3829 5.1C86.3829 7.39755 84.6534 9.112 82.1889 9.112V11.112ZM88.3829 5.1C88.3829 1.62955 85.6884 -0.912 82.1889 -0.912V1.088C84.6534 1.088 86.3829 2.80245 86.3829 5.1L88.3829 5.1ZM82.1889 -0.912C78.6632 -0.912 75.9669 1.64188 75.9669 5.1H77.9669C77.9669 2.81812 79.6947 1.088 82.1889 1.088V-0.912ZM75.9669 5.1C75.9669 8.55812 78.6632 11.112 82.1889 11.112V9.112C79.6947 9.112 77.9669 7.38188 77.9669 5.1H75.9669ZM82.1889 7.866C80.5285 7.866 79.3669 6.70312 79.3669 5.1H77.3669C77.3669 7.83688 79.4533 9.866 82.1889 9.866V7.866ZM79.3669 5.1C79.3669 3.49688 80.5285 2.334 82.1889 2.334V0.334C79.4533 0.334 77.3669 2.36312 77.3669 5.1H79.3669ZM82.1889 2.334C83.8165 2.334 84.9829 3.49205 84.9829 5.1H86.9829C86.9829 2.36795 84.9014 0.334 82.1889 0.334V2.334ZM84.9829 5.1C84.9829 6.70795 83.8165 7.866 82.1889 7.866V9.866C84.9014 9.866 86.9829 7.83205 86.9829 5.1H84.9829Z" fill="black"/>
</g>
<defs>
<filter id="filter0_d_2_447" x="0.470001" y="0.0878906" width="90.9129" height="18.0242" filterUnits="userSpaceOnUse" color-interpolation-filters="sRGB">
<feFlood flood-opacity="0" result="BackgroundImageFix"/>
<feColorMatrix in="SourceAlpha" type="matrix" values="0 0 0 0 0 0 0 0 0 0 0 0 0 0 0 0 0 0 127 0" result="hardAlpha"/>
<feOffset dy="4"/>
<feGaussianBlur stdDeviation="2"/>
<feComposite in2="hardAlpha" operator="out"/>
<feColorMatrix type="matrix" values="0 0 0 0 0 0 0 0 0 0 0 0 0 0 0 0 0 0 0.25 0"/>
<feBlend mode="normal" in2="BackgroundImageFix" result="effect1_dropShadow_2_447"/>
<feBlend mode="normal" in="SourceGraphic" in2="effect1_dropShadow_2_447" result="shape"/>
</filter>
</defs>
</svg>
