<svg width="48" height="11" viewBox="0 0 48 11" fill="none" xmlns="http://www.w3.org/2000/svg">
<path opacity="0.7" d="M4.326 10.112C3.57933 10.112 2.86533 10 2.184 9.776C1.50267 9.54267 0.966 9.244 0.574 8.88L1.092 7.788C1.46533 8.11467 1.94133 8.38533 2.52 8.6C3.09867 8.81467 3.70067 8.922 4.326 8.922C4.89533 8.922 5.35733 8.85667 5.712 8.726C6.06667 8.59533 6.328 8.418 6.496 8.194C6.664 7.96067 6.748 7.69933 6.748 7.41C6.748 7.074 6.636 6.80333 6.412 6.598C6.19733 6.39267 5.91267 6.22933 5.558 6.108C5.21267 5.97733 4.83 5.86533 4.41 5.772C3.99 5.67867 3.56533 5.57133 3.136 5.45C2.716 5.31933 2.32867 5.156 1.974 4.96C1.62867 4.764 1.34867 4.50267 1.134 4.176C0.919333 3.84 0.812 3.41067 0.812 2.888C0.812 2.384 0.942667 1.922 1.204 1.502C1.47467 1.07267 1.88533 0.731999 2.436 0.48C2.996 0.218667 3.70533 0.0879999 4.564 0.0879999C5.13333 0.0879999 5.698 0.162666 6.258 0.312C6.818 0.461333 7.30333 0.675999 7.714 0.956L7.252 2.076C6.832 1.796 6.38867 1.59533 5.922 1.474C5.45533 1.34333 5.00267 1.278 4.564 1.278C4.01333 1.278 3.56067 1.348 3.206 1.488C2.85133 1.628 2.59 1.81467 2.422 2.048C2.26333 2.28133 2.184 2.54267 2.184 2.832C2.184 3.17733 2.29133 3.45267 2.506 3.658C2.73 3.86333 3.01467 4.02667 3.36 4.148C3.71467 4.26933 4.102 4.38133 4.522 4.484C4.942 4.57733 5.362 4.68467 5.782 4.806C6.21133 4.92733 6.59867 5.086 6.944 5.282C7.29867 5.478 7.58333 5.73933 7.798 6.066C8.01267 6.39267 8.12 6.81267 8.12 7.326C8.12 7.82067 7.98467 8.28267 7.714 8.712C7.44333 9.132 7.02333 9.47267 6.454 9.734C5.894 9.986 5.18467 10.112 4.326 10.112ZM11.9746 10V1.418H8.61459V0.199999H16.7206V1.418H13.3606V10H11.9746ZM22.5327 10.112C21.786 10.112 21.0907 9.986 20.4467 9.734C19.812 9.482 19.2613 9.132 18.7947 8.684C18.328 8.22667 17.964 7.69467 17.7027 7.088C17.4413 6.48133 17.3107 5.81867 17.3107 5.1C17.3107 4.38133 17.4413 3.71867 17.7027 3.112C17.964 2.50533 18.328 1.978 18.7947 1.53C19.2613 1.07267 19.812 0.717999 20.4467 0.465999C21.0813 0.214 21.7767 0.0879999 22.5327 0.0879999C23.2793 0.0879999 23.9653 0.214 24.5907 0.465999C25.2253 0.708666 25.776 1.05867 26.2427 1.516C26.7187 1.964 27.0827 2.49133 27.3347 3.098C27.596 3.70467 27.7267 4.372 27.7267 5.1C27.7267 5.828 27.596 6.49533 27.3347 7.102C27.0827 7.70867 26.7187 8.24067 26.2427 8.698C25.776 9.146 25.2253 9.496 24.5907 9.748C23.9653 9.99067 23.2793 10.112 22.5327 10.112ZM22.5327 8.866C23.074 8.866 23.5733 8.77267 24.0307 8.586C24.4973 8.39933 24.8987 8.138 25.2347 7.802C25.58 7.45667 25.846 7.05533 26.0327 6.598C26.2287 6.14067 26.3267 5.64133 26.3267 5.1C26.3267 4.55867 26.2287 4.05933 26.0327 3.602C25.846 3.14467 25.58 2.748 25.2347 2.412C24.8987 2.06667 24.4973 1.80067 24.0307 1.614C23.5733 1.42733 23.074 1.334 22.5327 1.334C21.982 1.334 21.4733 1.42733 21.0067 1.614C20.5493 1.80067 20.148 2.06667 19.8027 2.412C19.4573 2.748 19.1867 3.14467 18.9907 3.602C18.804 4.05933 18.7107 4.55867 18.7107 5.1C18.7107 5.64133 18.804 6.14067 18.9907 6.598C19.1867 7.05533 19.4573 7.45667 19.8027 7.802C20.148 8.138 20.5493 8.39933 21.0067 8.586C21.4733 8.77267 21.982 8.866 22.5327 8.866ZM29.8665 10V0.199999H33.6885C34.5472 0.199999 35.2798 0.335333 35.8865 0.606C36.4932 0.876666 36.9598 1.26867 37.2865 1.782C37.6132 2.29533 37.7765 2.90667 37.7765 3.616C37.7765 4.32533 37.6132 4.93667 37.2865 5.45C36.9598 5.954 36.4932 6.34133 35.8865 6.612C35.2798 6.88267 34.5472 7.018 33.6885 7.018H30.6365L31.2665 6.374V10H29.8665ZM36.4185 10L33.9265 6.444H35.4245L37.9445 10H36.4185ZM31.2665 6.514L30.6365 5.828H33.6465C34.5425 5.828 35.2192 5.63667 35.6765 5.254C36.1432 4.862 36.3765 4.316 36.3765 3.616C36.3765 2.916 36.1432 2.37467 35.6765 1.992C35.2192 1.60933 34.5425 1.418 33.6465 1.418H30.6365L31.2665 0.717999V6.514ZM41.3124 4.428H46.3524V5.618H41.3124V4.428ZM41.4384 8.782H47.1504V10H40.0384V0.199999H46.9544V1.418H41.4384V8.782Z" fill="#424242"/>
</svg>
